<?xml version="1.0" encoding="utf-8"?>
<svg width="16px" height="16px" viewBox="0 0 1024 1024" xmlns="http://www.w3.org/2000/svg" xmlns:bx="https://boxy-svg.com">
  <defs>
    <filter id="drop-shadow-filter-0" color-interpolation-filters="sRGB" x="-50%" y="-50%" width="200%" height="200%" bx:preset="drop-shadow 1 0 10 8 0.53 #00000067">
      <feGaussianBlur in="SourceAlpha" stdDeviation="8"/>
      <feOffset dx="0" dy="10"/>
      <feComponentTransfer result="offsetblur">
        <feFuncA id="spread-ctrl" type="linear" slope="1.06"/>
      </feComponentTransfer>
      <feFlood flood-color="#00000067"/>
      <feComposite in2="offsetblur" operator="in"/>
      <feMerge>
        <feMergeNode/>
        <feMergeNode in="SourceGraphic"/>
      </feMerge>
    </filter>
    <bx:export>
      <bx:file format="png" path="AppIcon-16x16.png" width="16" height="16"/>
      <bx:file format="png" path="AppIcon-16x16@2x.png" width="32" height="32"/>
      <bx:file format="png" path="AppIcon-32x32.png" width="32" height="32"/>
      <bx:file format="png" path="AppIcon-32x32@2x.png" width="64" height="64"/>
      <bx:file format="png" path="AppIcon-128x128.png" width="128" height="128"/>
      <bx:file format="png" path="AppIcon-128x128@2x.png" width="256" height="256"/>
      <bx:file format="png" path="AppIcon-256x256.png" width="256" height="256"/>
      <bx:file format="png" path="AppIcon-256x256@2x.png" width="512" height="512"/>
      <bx:file format="png" path="AppIcon-512x512.png" width="512" height="512"/>
      <bx:file format="png" path="AppIcon-512x512@2x.png" width="1024" height="1024"/>
    </bx:export>
  </defs>
  <g>
    <rect style="filter: url(&quot;#drop-shadow-filter-0&quot;); fill: rgb(227, 232, 237);" x="100" y="100" width="824" height="824" rx="184" ry="184"/>
    <g>
      <rect x="212" y="212" width="600" height="600" style="stroke: rgb(0, 0, 0); stroke-width: 16px; fill: rgb(255, 255, 255);" rx="100.467" ry="100.467"/>
      <g transform="matrix(0.809524, 0, 0, 0.809524, 341.999939, 300)" style="">
        <g>
          <ellipse style="stroke-width: 8; fill: rgb(0, 173, 0);" cx="60" cy="60" rx="60" ry="60"/>
          <path style="fill: none; stroke-linecap: round; stroke-linejoin: round; stroke: rgb(255, 255, 255); stroke-width: 12.3529px;" d="M 82.292 39.2 L 54.759 80.8 L 37.709 62.03"/>
        </g>
        <g>
          <ellipse style="stroke-width: 8; fill: rgb(0, 173, 0);" cx="210" cy="60" rx="60" ry="60"/>
          <path style="fill: none; stroke-linecap: round; stroke-linejoin: round; stroke: rgb(255, 255, 255); stroke-width: 12.3529px;" d="M 232.292 39.2 L 204.759 80.8 L 187.709 62.03"/>
        </g>
        <g>
          <ellipse style="stroke-width: 8; fill: rgb(0, 173, 0);" cx="360" cy="60" rx="60" ry="60"/>
          <path style="fill: none; stroke-linecap: round; stroke-linejoin: round; stroke: rgb(255, 255, 255); stroke-width: 12.3529px;" d="M 382.292 39.2 L 354.759 80.8 L 337.709 62.03"/>
        </g>
        <g>
          <ellipse style="stroke-width: 8; fill: rgb(230, 110, 0);" cx="60" cy="210" rx="60" ry="60"/>
          <path style="fill: none; stroke-linecap: round; stroke-linejoin: round; stroke: rgb(255, 255, 255); stroke-width: 12.3529px;" d="M 82.292 189.2 L 54.759 230.8 L 37.709 212.03"/>
        </g>
        <g>
          <ellipse style="stroke-width: 8; fill: rgb(193, 193, 193);" cx="210" cy="210" rx="60" ry="60"/>
          <path style="fill: none; stroke-linecap: round; stroke-linejoin: round; stroke: rgb(255, 255, 255); stroke-width: 12.3529px; opacity: 0;" d="M 232.292 189.2 L 204.759 230.8 L 187.709 212.03"/>
        </g>
        <g>
          <ellipse style="stroke-width: 8; fill: rgb(193, 193, 193);" cx="360" cy="210" rx="60" ry="60"/>
          <path style="fill: none; stroke-linecap: round; stroke-linejoin: round; stroke: rgb(255, 255, 255); stroke-width: 12.3529px; opacity: 0;" d="M 382.292 189.2 L 354.759 230.8 L 337.709 212.03"/>
        </g>
        <g>
          <ellipse style="stroke-width: 8; fill: rgb(213, 31, 0);" cx="60" cy="360" rx="60" ry="60"/>
          <path style="fill: none; stroke-linecap: round; stroke-linejoin: round; stroke: rgb(255, 255, 255); stroke-width: 12.3529px;" d="M 82.292 339.2 L 54.759 380.8 L 37.709 362.03"/>
        </g>
        <g>
          <ellipse style="stroke-width: 8; fill: rgb(193, 193, 193);" cx="210" cy="360" rx="60" ry="60"/>
          <path style="fill: none; stroke-linecap: round; stroke-linejoin: round; stroke: rgb(255, 255, 255); stroke-width: 12.3529px; opacity: 0;" d="M 232.292 339.2 L 204.759 380.8 L 187.709 362.03"/>
        </g>
        <g>
          <ellipse style="stroke-width: 8; fill: rgb(193, 193, 193);" cx="360" cy="360" rx="60" ry="60"/>
          <path style="fill: none; stroke-linecap: round; stroke-linejoin: round; stroke: rgb(255, 255, 255); stroke-width: 12.3529px; opacity: 0;" d="M 382.292 339.2 L 354.759 380.8 L 337.709 362.03"/>
        </g>
      </g>
      <rect x="342" y="690" width="340" height="50" style="fill: rgb(143, 214, 240);" rx="27.343" ry="27.343"/>
    </g>
  </g>
</svg>