<?xml version="1.0" encoding="utf-8"?>
<svg viewBox="0 0 2560 1600" xmlns="http://www.w3.org/2000/svg" xmlns:bx="https://boxy-svg.com">
  <defs>
    <bx:export>
      <bx:file format="png" path="screen-1.png"/>
    </bx:export>
    <linearGradient gradientUnits="userSpaceOnUse" x1="510.5" y1="203" x2="510.5" y2="818" id="gradient-0">
      <stop offset="0" style="stop-color: rgb(255, 255, 255);"/>
      <stop offset="1" style="stop-color: rgb(237, 231, 223);"/>
    </linearGradient>
    <filter id="drop-shadow-filter-1" bx:preset="drop-shadow 1 0 10 8 0.53 #00000067" color-interpolation-filters="sRGB" x="-50%" y="-50%" width="200%" height="200%">
      <feGaussianBlur in="SourceAlpha" stdDeviation="8"/>
      <feOffset dx="0" dy="10"/>
      <feComponentTransfer result="offsetblur">
        <feFuncA id="spread-ctrl" type="linear" slope="1.06"/>
      </feComponentTransfer>
      <feFlood flood-color="#00000067"/>
      <feComposite in2="offsetblur" operator="in"/>
      <feMerge>
        <feMergeNode/>
        <feMergeNode in="SourceGraphic"/>
      </feMerge>
    </filter>
    <filter id="drop-shadow-filter-5" bx:preset="drop-shadow 1 0 4 4 0.33 #000" color-interpolation-filters="sRGB" x="-50%" y="-50%" width="200%" height="200%">
      <feGaussianBlur in="SourceAlpha" stdDeviation="4"/>
      <feOffset dx="0" dy="4"/>
      <feComponentTransfer result="offsetblur">
        <feFuncA id="spread-ctrl" type="linear" slope="0.66"/>
      </feComponentTransfer>
      <feFlood flood-color="#000"/>
      <feComposite in2="offsetblur" operator="in"/>
      <feMerge>
        <feMergeNode/>
        <feMergeNode in="SourceGraphic"/>
      </feMerge>
    </filter>
    <filter id="drop-shadow-filter-4" bx:preset="drop-shadow 1 0 4 4 0.33 #000" color-interpolation-filters="sRGB" x="-50%" y="-50%" width="200%" height="200%">
      <feGaussianBlur in="SourceAlpha" stdDeviation="4"/>
      <feOffset dx="0" dy="4"/>
      <feComponentTransfer result="offsetblur">
        <feFuncA id="spread-ctrl" type="linear" slope="0.66"/>
      </feComponentTransfer>
      <feFlood flood-color="#000"/>
      <feComposite in2="offsetblur" operator="in"/>
      <feMerge>
        <feMergeNode/>
        <feMergeNode in="SourceGraphic"/>
      </feMerge>
    </filter>
    <filter id="drop-shadow-filter-3" bx:preset="drop-shadow 1 0 4 4 0.33 #000000b1" color-interpolation-filters="sRGB" x="-50%" y="-50%" width="200%" height="200%">
      <feGaussianBlur in="SourceAlpha" stdDeviation="4"/>
      <feOffset dx="0" dy="4"/>
      <feComponentTransfer result="offsetblur">
        <feFuncA id="spread-ctrl" type="linear" slope="0.66"/>
      </feComponentTransfer>
      <feFlood flood-color="#000000b1"/>
      <feComposite in2="offsetblur" operator="in"/>
      <feMerge>
        <feMergeNode/>
        <feMergeNode in="SourceGraphic"/>
      </feMerge>
    </filter>
    <filter id="drop-shadow-filter-2" bx:preset="drop-shadow 1 0 4 4 0.33 #000000b1" color-interpolation-filters="sRGB" x="-50%" y="-50%" width="200%" height="200%">
      <feGaussianBlur in="SourceAlpha" stdDeviation="4"/>
      <feOffset dx="0" dy="4"/>
      <feComponentTransfer result="offsetblur">
        <feFuncA id="spread-ctrl" type="linear" slope="0.66"/>
      </feComponentTransfer>
      <feFlood flood-color="#000000b1"/>
      <feComposite in2="offsetblur" operator="in"/>
      <feMerge>
        <feMergeNode/>
        <feMergeNode in="SourceGraphic"/>
      </feMerge>
    </filter>
    <filter id="drop-shadow-filter-0" bx:preset="drop-shadow 1 0 4 4 0.33 #000000b1" color-interpolation-filters="sRGB" x="-50%" y="-50%" width="200%" height="200%">
      <feGaussianBlur in="SourceAlpha" stdDeviation="4"/>
      <feOffset dx="0" dy="4"/>
      <feComponentTransfer result="offsetblur">
        <feFuncA id="spread-ctrl" type="linear" slope="0.66"/>
      </feComponentTransfer>
      <feFlood flood-color="#000000b1"/>
      <feComposite in2="offsetblur" operator="in"/>
      <feMerge>
        <feMergeNode/>
        <feMergeNode in="SourceGraphic"/>
      </feMerge>
    </filter>
    <bx:guide x="-499.993" y="391.417" angle="0"/>
    <filter id="drop-shadow-filter-6" bx:preset="drop-shadow 1 0 2 2 1 rgba(0,0,0,0.3)" color-interpolation-filters="sRGB" x="-50%" y="-50%" width="200%" height="200%">
      <feGaussianBlur in="SourceAlpha" stdDeviation="2"/>
      <feOffset dx="0" dy="2"/>
      <feComponentTransfer result="offsetblur">
        <feFuncA id="spread-ctrl" type="linear" slope="2"/>
      </feComponentTransfer>
      <feFlood flood-color="rgba(0,0,0,0.3)"/>
      <feComposite in2="offsetblur" operator="in"/>
      <feMerge>
        <feMergeNode/>
        <feMergeNode in="SourceGraphic"/>
      </feMerge>
    </filter>
    <filter id="filter-2" color-interpolation-filters="sRGB" x="-50%" y="-50%" width="200%" height="200%" bx:preset="drop-shadow 1 0 0 10 0.4 rgba(0,0,0,0.3)">
      <feGaussianBlur in="SourceAlpha" stdDeviation="10"/>
      <feOffset dx="0" dy="0"/>
      <feComponentTransfer result="offsetblur">
        <feFuncA id="feFuncA-2" type="linear" slope="0.8"/>
      </feComponentTransfer>
      <feFlood flood-color="rgba(0,0,0,0.3)"/>
      <feComposite in2="offsetblur" operator="in"/>
      <feMerge>
        <feMergeNode/>
        <feMergeNode in="SourceGraphic"/>
      </feMerge>
    </filter>
    <linearGradient gradientUnits="userSpaceOnUse" x1="375.117" y1="1019.9" x2="375.117" y2="1075.9" id="gradient-5">
      <stop offset="0" style="stop-color: rgb(21.961% 59.608% 89.412%)"/>
      <stop offset="1" style="stop-color: rgb(0, 102, 168);"/>
    </linearGradient>
    <linearGradient gradientUnits="userSpaceOnUse" x1="623.617" y1="1020" x2="623.617" y2="1076" id="gradient-6">
      <stop offset="0" style="stop-color: rgb(56, 152, 228);"/>
      <stop offset="1" style="stop-color: rgb(0, 102, 168);"/>
    </linearGradient>
  </defs>
  <g>
    <rect width="1280" height="1600" style="fill: rgb(227, 228, 229);"/>
    <g transform="matrix(1, 0, 0, 1, 0, -83)">
      <g transform="matrix(0.265083, 0, 0, 0.265083, 98.188141, 291.188171)" style="">
        <rect style="stroke-width: 16px; filter: url(&quot;#drop-shadow-filter-1&quot;); fill: url(&quot;#gradient-0&quot;);" x="203" y="203" width="615" height="615" rx="127.5" ry="127.5"/>
        <g transform="matrix(0.946429, 0, 0, 0.946429, 300.499908, 300.499908)">
          <ellipse style="stroke-width: 8; fill: rgb(0, 173, 0); filter: url(&quot;#drop-shadow-filter-5&quot;);" cx="60" cy="60" rx="60" ry="60"/>
          <path style="fill: none; stroke-linecap: round; stroke-linejoin: round; stroke: rgb(255, 255, 255); stroke-width: 12.3529px" d="M 82.292 39.2 L 54.759 80.8 L 37.709 62.03"/>
        </g>
        <g transform="matrix(0.946429, 0, 0, 0.946429, 313.249908, 300.499908)">
          <ellipse style="stroke-width: 8; fill: rgb(0, 173, 0); filter: url(&quot;#drop-shadow-filter-5&quot;);" cx="210" cy="60" rx="60" ry="60"/>
          <path style="fill: none; stroke-linecap: round; stroke-linejoin: round; stroke: rgb(255, 255, 255); stroke-width: 12.3529px" d="M 232.292 39.2 L 204.759 80.8 L 187.709 62.03"/>
        </g>
        <g transform="matrix(0.946429, 0, 0, 0.946429, 325.999908, 300.499908)">
          <ellipse style="stroke-width: 8; fill: rgb(0, 173, 0); filter: url(&quot;#drop-shadow-filter-5&quot;);" cx="360" cy="60" rx="60" ry="60"/>
          <path style="fill: none; stroke-linecap: round; stroke-linejoin: round; stroke: rgb(255, 255, 255); stroke-width: 12.3529px" d="M 382.292 39.2 L 354.759 80.8 L 337.709 62.03"/>
        </g>
        <g transform="matrix(0.946429, 0, 0, 0.946429, 300.499908, 313.249908)">
          <ellipse style="stroke-width: 8; fill: rgb(230, 110, 0); filter: url(&quot;#drop-shadow-filter-5&quot;);" cx="60" cy="210" rx="60" ry="60"/>
          <path style="fill: none; stroke-linecap: round; stroke-linejoin: round; stroke: rgb(255, 255, 255); stroke-width: 12.3529px" d="M 82.292 189.2 L 54.759 230.8 L 37.709 212.03"/>
        </g>
        <g transform="matrix(0.946429, 0, 0, 0.946429, 313.249908, 313.249908)">
          <ellipse style="stroke-width: 8; filter: url(&quot;#drop-shadow-filter-4&quot;); fill: rgb(230, 110, 0);" cx="210" cy="210" rx="60" ry="60"/>
          <path style="fill: none; stroke-linecap: round; stroke-linejoin: round; stroke: rgb(255, 255, 255); stroke-width: 12.3529px;" d="M 232.292 189.2 L 204.759 230.8 L 187.709 212.03"/>
        </g>
        <g transform="matrix(0.946429, 0, 0, 0.946429, 325.999908, 313.249908)">
          <ellipse style="stroke-width: 8; filter: url(&quot;#drop-shadow-filter-3&quot;); fill: rgb(225, 225, 225);" cx="360" cy="210" rx="60" ry="60"/>
          <path style="fill: none; stroke-linecap: round; stroke-linejoin: round; stroke: rgb(255, 255, 255); stroke-width: 12.3529px; opacity: 0" d="M 382.292 189.2 L 354.759 230.8 L 337.709 212.03"/>
        </g>
        <g transform="matrix(0.946429, 0, 0, 0.946429, 300.499908, 325.999908)">
          <ellipse style="stroke-width: 8; fill: rgb(213, 31, 0); filter: url(&quot;#drop-shadow-filter-5&quot;);" cx="60" cy="360" rx="60" ry="60"/>
          <path style="fill: none; stroke-linecap: round; stroke-linejoin: round; stroke: rgb(255, 255, 255); stroke-width: 12.3529px" d="M 82.292 339.2 L 54.759 380.8 L 37.709 362.03"/>
        </g>
        <g transform="matrix(0.946429, 0, 0, 0.946429, 313.249908, 325.999908)">
          <ellipse style="stroke-width: 8; filter: url(&quot;#drop-shadow-filter-2&quot;); fill: rgb(225, 225, 225);" cx="210" cy="360" rx="60" ry="60"/>
          <path style="fill: none; stroke-linecap: round; stroke-linejoin: round; stroke: rgb(255, 255, 255); stroke-width: 12.3529px; opacity: 0" d="M 232.292 339.2 L 204.759 380.8 L 187.709 362.03"/>
        </g>
        <g transform="matrix(0.946429, 0, 0, 0.946429, 325.999908, 325.999908)">
          <ellipse style="stroke-width: 8; filter: url(&quot;#drop-shadow-filter-0&quot;); fill: rgb(225, 225, 225);" cx="360" cy="360" rx="60" ry="60"/>
          <path style="fill: none; stroke-linecap: round; stroke-linejoin: round; stroke: rgb(255, 255, 255); stroke-width: 12.3529px; opacity: 0" d="M 382.292 339.2 L 354.759 380.8 L 337.709 362.03"/>
        </g>
      </g>
      <text style="fill: rgb(255, 255, 255); font-family: Arial, sans-serif; font-size: 30px; font-weight: 700; letter-spacing: 0.6px; white-space: pre; filter: url(&quot;#drop-shadow-filter-6&quot;); stroke-width: 1;" x="170.273" y="550.346">rwx.icon</text>
    </g>
    <g style="filter: url(&quot;#filter-2&quot;);" transform="matrix(1, 0, 0, 1, 140.906982, 212)">
      <path d="M 219.117 50 L 779.117 50 C 790.163 50 799.117 60.705 799.117 73.911 L 799.117 1102.09 C 799.117 1115.3 790.163 1126 779.117 1126 L 219.117 1126 C 208.071 1126 199.117 1115.3 199.117 1102.09 L 199.093 182.916 C 199.093 166.178 175.093 157.343 175.093 149.44 C 175.093 141.502 199.093 132.703 199.093 115.965 L 199.117 73.911 C 199.117 60.705 208.071 50 219.117 50 Z" style="stroke-width: 2px; filter: none; fill: rgb(238, 238, 238); stroke: rgb(198, 198, 198);"/>
      <g>
        <path style="stroke-width: 2; filter: none; fill: rgb(240, 240, 240);" d="M 219.499 51 H 779.499 A 20 20 0 0 1 799.499 71 V 374 H 199.499 V 71 A 20 20 0 0 1 219.499 51 Z" bx:shape="rect 199.499 51 600 323 20 20 0 0 1@cb3b90a6"/>
        <g>
          <rect x="199.617" y="105" width="200" height="54" style="stroke-width: 1; fill: rgb(231, 231, 231);"/>
          <rect x="399.617" y="105" width="400" height="54" style="stroke-width: 1; fill: rgb(231, 231, 231);"/>
        </g>
        <g>
          <rect x="200.117" y="213" width="200" height="54" style="stroke-width: 1; fill: rgb(231, 231, 231);"/>
          <rect x="400.117" y="213" width="400" height="54" style="stroke-width: 1; fill: rgb(231, 231, 231);"/>
        </g>
        <g>
          <rect x="200.117" y="320" width="200" height="54" style="stroke-width: 1; fill: rgb(231, 231, 231);"/>
          <rect x="400.117" y="320" width="400" height="54" style="stroke-width: 1; fill: rgb(231, 231, 231);"/>
        </g>
        <g>
          <text style="font-family: &quot;SF Pro&quot;; font-size: 27px; letter-spacing: 0.3px; white-space: pre;" transform="matrix(1, -0.000916, 0, 1, 124.392349, -624.145325)" x="206.863" y="710.918">Kind</text>
          <text style="font-family: &quot;SF Pro&quot;; font-size: 27px; letter-spacing: 0.3px; white-space: pre;" transform="matrix(1, -0.000916, 0, 1, 207.158966, -623.667725)" x="206.863" y="710.918">file</text>
          <text style="font-family: &quot;SF Pro&quot;; font-size: 27px; letter-spacing: 0.3px; white-space: pre;" transform="matrix(1, -0.000916, 0, 1, 107.777084, -569.823303)" x="206.863" y="710.918">Name</text>
          <text style="font-family: &quot;SF Pro&quot;; font-size: 24px; letter-spacing: 0.3px; white-space: pre;" transform="matrix(1, -0.000916, 0, 1, 207.158966, -570.246338)" x="206.863" y="710.918">Rwx Editor.icns</text>
          <text style="font-family: &quot;SF Pro&quot;; font-size: 27px; letter-spacing: 0.3px; white-space: pre;" transform="matrix(1, -0.000916, 0, 1, 124.65274, -516.132324)" x="206.863" y="710.918">Path</text>
          <text style="font-family: &quot;SF Pro&quot;; font-size: 24px; letter-spacing: 0.3px; white-space: pre;" transform="matrix(1, -0.000916, 0, 1, 207.158966, -516.705261)" x="206.863" y="710.918">/usr/local/bin/some/path/…</text>
          <text style="font-family: &quot;SF Pro&quot;; font-size: 27px; letter-spacing: 0.3px; white-space: pre;" x="309.79" y="248.733">Size</text>
          <path d="M 372.117 244.549 C 372.117 242.629 373.466 241.067 375.464 240.431 L 375.464 241.918 C 374.254 242.409 373.471 243.371 373.471 244.549 C 373.471 246.309 375.2 247.649 377.491 247.649 C 379.781 247.649 381.502 246.309 381.502 244.549 C 381.502 243.359 380.72 242.389 379.485 241.885 L 379.485 240.415 C 381.49 241.046 382.856 242.62 382.856 244.549 C 382.856 247.069 380.539 249 377.491 249 C 374.442 249 372.117 247.069 372.117 244.549 Z M 376.526 244.741 L 376.526 237.009 C 374.735 236.588 373.391 234.984 373.391 233.042 C 373.391 230.829 375.225 229 377.462 229 C 379.692 229 381.513 230.812 381.513 233.042 C 381.513 234.96 380.201 236.571 378.423 237.003 L 378.423 244.741 C 378.423 245.089 377.996 245.347 377.462 245.347 C 376.94 245.347 376.526 245.089 376.526 244.741 Z" style=""/>
          <text style="font-family: &quot;SF Pro&quot;; font-size: 24px; letter-spacing: 0.3px; white-space: pre;" transform="matrix(1, 0, 0, 1, 63.530949, 76.498878)"><tspan x="350.491" y="172.112">1 234 567 B</tspan><tspan x="350.491" dy="1em">​</tspan></text>
          <text style="font-family: &quot;SF Pro&quot;; font-size: 27px; letter-spacing: 0.3px; white-space: pre;" x="265.171" y="302.616">Created</text>
          <path d="M 372.117 298.549 C 372.117 296.629 373.466 295.067 375.464 294.431 L 375.464 295.918 C 374.254 296.409 373.471 297.371 373.471 298.549 C 373.471 300.309 375.2 301.649 377.491 301.649 C 379.781 301.649 381.502 300.309 381.502 298.549 C 381.502 297.359 380.72 296.389 379.485 295.885 L 379.485 294.415 C 381.49 295.046 382.856 296.62 382.856 298.549 C 382.856 301.069 380.539 303 377.491 303 C 374.442 303 372.117 301.069 372.117 298.549 Z M 376.526 298.741 L 376.526 291.009 C 374.735 290.588 373.391 288.984 373.391 287.042 C 373.391 284.829 375.225 283 377.462 283 C 379.692 283 381.513 284.812 381.513 287.042 C 381.513 288.96 380.201 290.571 378.423 291.003 L 378.423 298.741 C 378.423 299.089 377.996 299.347 377.462 299.347 C 376.94 299.347 376.526 299.089 376.526 298.741 Z" style=""/>
          <text style="font-family: &quot;SF Pro&quot;; font-size: 24px; letter-spacing: 0.3px; white-space: pre;" x="414.022" y="302.323">1 Jan 2025 at 00:00:00</text>
          <text style="font-family: &quot;SF Pro&quot;; font-size: 27px; letter-spacing: 0.3px; white-space: pre;" x="256.602" y="356.993">Updated</text>
          <path d="M 372.117 352.549 C 372.117 350.629 373.466 349.067 375.464 348.431 L 375.464 349.918 C 374.254 350.409 373.471 351.371 373.471 352.549 C 373.471 354.309 375.2 355.649 377.491 355.649 C 379.781 355.649 381.502 354.309 381.502 352.549 C 381.502 351.359 380.72 350.389 379.485 349.885 L 379.485 348.415 C 381.49 349.046 382.856 350.62 382.856 352.549 C 382.856 355.069 380.539 357 377.491 357 C 374.442 357 372.117 355.069 372.117 352.549 Z M 376.526 352.741 L 376.526 345.009 C 374.735 344.588 373.391 342.984 373.391 341.042 C 373.391 338.829 375.225 337 377.462 337 C 379.692 337 381.513 338.812 381.513 341.042 C 381.513 342.96 380.201 344.571 378.423 345.003 L 378.423 352.741 C 378.423 353.089 377.996 353.347 377.462 353.347 C 376.94 353.347 376.526 353.089 376.526 352.741 Z" style=""/>
          <text style="font-family: &quot;SF Pro&quot;; font-size: 24px; letter-spacing: 0.3px; white-space: pre;" x="414.022" y="356.642">1 Jan 2025 at 00:00:00</text>
        </g>
      </g>
      <g>
        <rect style="stroke-width: 2; filter: none; fill: color(xyz-d65 0.797 0.839 0.914);" x="199.117" y="374" width="600" height="597"/>
        <g>
          <g>
            <text style="fill: rgb(36, 36, 36); font-family: &quot;SF Pro&quot;; font-size: 27px; letter-spacing: 0.3px; white-space: pre; stroke-width: 1;" x="409.31" y="450.675">Read</text>
            <text style="fill: rgb(36, 36, 36); font-family: &quot;SF Pro&quot;; font-size: 27px; letter-spacing: 0.3px; white-space: pre;" transform="matrix(1, 0, 0, 1, -1061.322144, 182.882355)"><tspan x="1589.71" y="267.793">Write</tspan><tspan x="1589.71" dy="1em">​</tspan></text>
            <text style="fill: rgb(36, 36, 36); font-family: &quot;SF Pro&quot;; font-size: 27px; letter-spacing: 0.3px; white-space: pre;" transform="matrix(1, 0, 0, 1, -956.534546, 182.882355)"><tspan x="1589.71" y="267.793">Execute</tspan><tspan x="1589.71" dy="1em">​</tspan></text>
          </g>
          <g>
            <text style="fill: rgb(36, 36, 36); font-family: &quot;SF Pro&quot;; font-size: 27px; letter-spacing: 0.3px; white-space: pre; stroke-width: 1;" x="280.11" y="521.712">Owner</text>
            <text style="fill: rgb(36, 36, 36); font-family: &quot;SF Pro&quot;; font-size: 27px; letter-spacing: 0.3px; white-space: pre; stroke-width: 1;" x="284.15" y="591.006">Group</text>
            <text style="fill: rgb(36, 36, 36); font-family: &quot;SF Pro&quot;; font-size: 27px; letter-spacing: 0.3px; white-space: pre; stroke-width: 1;" x="286.79" y="660.884">Other</text>
          </g>
          <g>
            <g>
              <ellipse style="fill: color(display-p3 0.196 0.663 0.054); stroke-width: 1;" cx="439.67" cy="510.133" rx="25" ry="25"/>
              <path style="stroke-linecap: round; stroke-linejoin: round; stroke-width: 4; stroke: rgb(255, 255, 255); fill: none;" d="M 429.9 510.992 L 437.1 519.441 L 449.05 500.825"/>
            </g>
            <g>
              <ellipse style="fill: color(display-p3 0.196 0.663 0.054); stroke-width: 1;" cx="559.6" cy="510.133" rx="25" ry="25"/>
              <path style="stroke-linecap: round; stroke-linejoin: round; stroke-width: 4; stroke: rgb(255, 255, 255); fill: none;" d="M 549.83 510.992 L 557.03 519.441 L 568.98 500.825"/>
            </g>
            <ellipse style="stroke-width: 1; filter: none; fill: color(display-p3 0.816 0.816 0.816);" cx="679.99" cy="510.133" rx="25" ry="25"/>
            <g>
              <ellipse style="fill: color(display-p3 0.837 0.461 0.047); stroke-width: 1;" cx="439.85" cy="580.321" rx="25" ry="25"/>
              <path style="stroke-linecap: round; stroke-linejoin: round; stroke-width: 4; stroke: rgb(255, 255, 255); fill: none;" d="M 430.08 581.18 L 437.28 589.629 L 449.23 571.013"/>
            </g>
            <ellipse style="stroke-width: 1; filter: none; fill: color(display-p3 0.816 0.816 0.816);" cx="559.6" cy="580.321" rx="25" ry="25"/>
            <ellipse style="stroke-width: 1; filter: none; fill: color(display-p3 0.816 0.816 0.816);" cx="679.99" cy="580.321" rx="25" ry="25"/>
            <g>
              <ellipse style="fill: color(display-p3 0.765 0.201 0.057); stroke-width: 1;" cx="439.85" cy="650.771" rx="25" ry="25"/>
              <path style="stroke-linecap: round; stroke-linejoin: round; stroke-width: 4; stroke: rgb(255, 255, 255); fill: none;" d="M 430.08 651.63 L 437.28 660.079 L 449.23 641.463"/>
            </g>
            <ellipse style="stroke-width: 1; filter: none; fill: color(display-p3 0.816 0.816 0.816);" cx="559.6" cy="650.771" rx="25" ry="25"/>
            <ellipse style="stroke-width: 1; filter: none; fill: color(display-p3 0.816 0.816 0.816);" cx="679.99" cy="650.771" rx="25" ry="25"/>
          </g>
        </g>
        <g>
          <rect style="fill: rgb(201, 223, 244); stroke-width: 1;" x="303.45" y="714.787" width="181" height="52" rx="10" ry="10"/>
          <text style="fill: rgb(1, 1, 1); font-family: &quot;PT Mono&quot;; font-size: 29px; letter-spacing: -1.5px; white-space: pre; stroke-width: 1;" x="321.04" y="749.198">rw-r--r--</text>
        </g>
        <g>
          <g>
            <rect style="fill: rgb(255, 255, 255); stroke-width: 1;" x="524.723" y="714.787" width="52" height="52" rx="18.307" ry="18.307"/>
            <text style="font-family: &quot;SF Pro&quot;; font-size: 27px; letter-spacing: 0.3px; white-space: pre; stroke-width: 1;" x="541.573" y="750.677">6</text>
          </g>
          <g>
            <rect style="fill: rgb(255, 255, 255); stroke-width: 1;" x="583.723" y="714.787" width="52" height="52" rx="18" ry="18"/>
            <text style="font-family: &quot;SF Pro&quot;; font-size: 27px; letter-spacing: 0.3px; white-space: pre; stroke-width: 1;" x="600.813" y="751.354">4</text>
          </g>
          <g>
            <rect style="fill: rgb(255, 255, 255); stroke-width: 1;" x="642.723" y="714.787" width="52" height="52" rx="18" ry="18"/>
            <text style="font-family: &quot;SF Pro&quot;; font-size: 27px; letter-spacing: 0.3px; white-space: pre; stroke-width: 1;" x="659.823" y="750.677">4</text>
          </g>
        </g>
        <g>
          <text style="fill: rgb(36, 36, 36); font-family: &quot;SF Pro&quot;; font-size: 27px; letter-spacing: 0.3px; white-space: pre; stroke-width: 1;" x="325.45" y="842.052">Owner</text>
          <g>
            <rect style="fill: rgb(255, 255, 255); stroke-width: 1;" x="1207.21" y="680.686" width="300" height="52" rx="18.307" ry="18.307" transform="matrix(0.999998, -0.001887, 0, 1.000002, -786.198669, 128.166092)"/>
            <text style="font-family: &quot;SF Pro&quot;; font-size: 27px; letter-spacing: 0.3px; white-space: pre; stroke-width: 1;" x="526.016" y="841.923">nobody</text>
          </g>
        </g>
        <g>
          <text style="fill: rgb(36, 36, 36); font-family: &quot;SF Pro&quot;; font-size: 27px; letter-spacing: 0.3px; white-space: pre; stroke-width: 1;" x="326.881" y="913.982">Group</text>
          <g>
            <rect style="fill: rgb(255, 255, 255); stroke-width: 1;" x="1207.22" y="680.686" width="300" height="52" rx="18.307" ry="18.307" transform="matrix(0.999998, -0.001887, 0, 1.000002, -786.128845, 200.096161)"/>
            <text style="font-family: &quot;SF Pro&quot;; font-size: 27px; letter-spacing: 0.3px; white-space: pre; stroke-width: 1;" x="544.212" y="913.854">staff</text>
          </g>
        </g>
      </g>
      <g>
        <path style="stroke-width: 2; filter: none; fill: rgb(225, 225, 225);" d="M 199.117 971 H 799.117 V 1106 A 20 20 0 0 1 779.117 1126 H 219.117 A 20 20 0 0 1 199.117 1106 V 971 Z" bx:shape="rect 199.117 971 600 155 0 0 20 20 1@cfa5b3a7"/>
        <g style="opacity: 0.5;">
          <rect x="261.117" y="1019.9" width="228" height="56" style="filter: none; stroke-width: 1; fill: url(&quot;#gradient-5&quot;);" rx="15.007" ry="15.007"/>
          <text style="fill: rgb(255, 255, 255); font-family: &quot;SF Pro&quot;; font-size: 27px; font-weight: 700; white-space: pre;" x="333.424" y="1056.59">cancel</text>
        </g>
        <g>
          <rect x="509.117" y="1020" width="229" height="56" style="filter: none; stroke-width: 1; fill: url(&quot;#gradient-6&quot;);" rx="14.968" ry="14.968"/>
          <text style="fill: rgb(255, 255, 255); font-family: &quot;SF Pro&quot;; font-size: 27px; font-weight: 700; white-space: pre;" x="588.758" y="1056.69">apply</text>
        </g>
      </g>
    </g>
  </g>
  <g>
    <rect width="1280" height="1600" style="fill: rgb(84, 85, 84);" x="1280"/>
  </g>
</svg>